<svg id="Group_21" data-name="Group 21" xmlns="http://www.w3.org/2000/svg" xmlns:xlink="http://www.w3.org/1999/xlink" width="114.077" height="57.801" viewBox="0 0 114.077 57.801">
  <defs>
    <clipPath id="clip-path">
      <rect id="Rectangle_4" data-name="Rectangle 4" width="114.077" height="57.801" fill="none"/>
    </clipPath>
  </defs>
  <g id="Group_20" data-name="Group 20" transform="translate(0 0)" clip-path="url(#clip-path)">
    <path id="Path_5" data-name="Path 5" d="M26.673,15.1q3.467,4.4,3.469,11.342a19.878,19.878,0,0,1-3.421,11.938,11.1,11.1,0,0,1-9.546,4.733,11.138,11.138,0,0,1-6.187-1.529,12.266,12.266,0,0,1-3.02-3.178v3.886H0V.556H8.081V15.413a11.828,11.828,0,0,1,3.395-3.288,10.123,10.123,0,0,1,5.595-1.42,11.553,11.553,0,0,1,9.6,4.395M19.918,33.929a11.444,11.444,0,0,0,1.744-6.635,14.837,14.837,0,0,0-.858-5.446,5.97,5.97,0,0,0-6-4.082,6.061,6.061,0,0,0-6.088,4,14.917,14.917,0,0,0-.857,5.5,11.434,11.434,0,0,0,1.771,6.575,6.084,6.084,0,0,0,5.4,2.61,5.6,5.6,0,0,0,4.889-2.523" transform="translate(0 0.097)" fill="#2f2f2f"/>
    <path id="Path_6" data-name="Path 6" d="M40.76,21.989a12.775,12.775,0,0,0,3.229-.707,2.433,2.433,0,0,0,1.743-2.3,2.713,2.713,0,0,0-1.338-2.622,8.443,8.443,0,0,0-3.921-.723q-2.9,0-4.109,1.416a5.842,5.842,0,0,0-1.152,2.836h-7.8a11.814,11.814,0,0,1,2.276-6.663Q32.91,9.146,40.742,9.144A19.7,19.7,0,0,1,49.8,11.158q3.959,2.013,3.958,7.6V32.934c0,.984.021,2.174.056,3.574a4.5,4.5,0,0,0,.482,2.154,2.926,2.926,0,0,0,1.194.937v1.19H46.7a8.982,8.982,0,0,1-.512-1.758c-.094-.548-.169-1.173-.226-1.872a16.691,16.691,0,0,1-3.88,3.092,11.709,11.709,0,0,1-5.93,1.5,10.233,10.233,0,0,1-6.974-2.395,8.518,8.518,0,0,1-2.753-6.79q0-5.7,4.428-8.251a19.719,19.719,0,0,1,7.141-1.988ZM45.7,25.763a9.1,9.1,0,0,1-1.568.78,13.545,13.545,0,0,1-2.169.55l-1.839.342a12.056,12.056,0,0,0-3.713,1.1A3.694,3.694,0,0,0,34.5,31.97a3.591,3.591,0,0,0,1.167,2.993,4.435,4.435,0,0,0,2.836.92,8.447,8.447,0,0,0,4.88-1.53q2.232-1.532,2.317-5.585Z" transform="translate(4.627 1.601)" fill="#2f2f2f"/>
    <path id="Path_7" data-name="Path 7" d="M79.009,15.1q3.469,4.4,3.47,11.342a19.87,19.87,0,0,1-3.422,11.938,11.1,11.1,0,0,1-9.545,4.733,11.141,11.141,0,0,1-6.187-1.529,12.286,12.286,0,0,1-3.02-3.178v3.886H52.337V.556h8.081V15.413a11.84,11.84,0,0,1,3.394-3.288,10.125,10.125,0,0,1,5.595-1.42,11.551,11.551,0,0,1,9.6,4.395M72.254,33.929A11.444,11.444,0,0,0,74,27.295a14.863,14.863,0,0,0-.857-5.446,5.972,5.972,0,0,0-6-4.082,6.061,6.061,0,0,0-6.088,4,14.915,14.915,0,0,0-.858,5.5,11.434,11.434,0,0,0,1.771,6.575,6.086,6.086,0,0,0,5.4,2.61,5.6,5.6,0,0,0,4.889-2.523" transform="translate(9.165 0.097)" fill="#2f2f2f"/>
    <path id="Path_8" data-name="Path 8" d="M90.071,8.389,81.939,7.4l.9-7.4L90.97.987Zm-8.576,2.673,8.132.987L85.905,42.731l-8.133-.986Z" transform="translate(13.619 0)" fill="#ff5100"/>
    <rect id="Rectangle_3" data-name="Rectangle 3" width="8.078" height="41.794" transform="translate(105.999 0.596)" fill="#2f2f2f"/>
    <path id="Path_9" data-name="Path 9" d="M69.523,43.031a2.742,2.742,0,0,0-.448-1.2,1.884,1.884,0,0,0-1.63-.72,2.146,2.146,0,0,0-2.154,1.561,6.468,6.468,0,0,0-.307,2.2,5.941,5.941,0,0,0,.307,2.1,2.081,2.081,0,0,0,2.1,1.484,1.854,1.854,0,0,0,1.552-.589,2.91,2.91,0,0,0,.556-1.529h3.176a5.205,5.205,0,0,1-1.026,2.685,5,5,0,0,1-4.336,2.04,5.077,5.077,0,0,1-4.228-1.7,6.88,6.88,0,0,1-1.353-4.414,6.973,6.973,0,0,1,1.5-4.762,5.207,5.207,0,0,1,4.128-1.7,6.225,6.225,0,0,1,3.663,1,4.668,4.668,0,0,1,1.689,3.547Z" transform="translate(10.811 6.739)" fill="#a5a5a5"/>
    <path id="Path_10" data-name="Path 10" d="M82.1,49.216a5.525,5.525,0,0,1-4.57,1.86,5.529,5.529,0,0,1-4.572-1.86,7.379,7.379,0,0,1,0-8.933A5.5,5.5,0,0,1,77.532,38.4a5.5,5.5,0,0,1,4.57,1.885,7.379,7.379,0,0,1,0,8.933M79.615,47.5a4.511,4.511,0,0,0,.73-2.756,4.492,4.492,0,0,0-.73-2.752,2.765,2.765,0,0,0-4.2,0,4.46,4.46,0,0,0-.737,2.752A4.479,4.479,0,0,0,75.42,47.5a2.754,2.754,0,0,0,4.2,0" transform="translate(12.513 6.724)" fill="#a5a5a5"/>
    <path id="Path_11" data-name="Path 11" d="M97.449,38.8a3.482,3.482,0,0,1,2.062,2.6,10.707,10.707,0,0,1,.108,1.757L99.6,50.653H96.413V43.082a2.479,2.479,0,0,0-.219-1.113,1.55,1.55,0,0,0-1.528-.828,1.786,1.786,0,0,0-1.778,1.068,3.367,3.367,0,0,0-.251,1.364v7.08H89.506v-7.08a3.993,3.993,0,0,0-.217-1.538,1.524,1.524,0,0,0-1.538-.863,1.835,1.835,0,0,0-1.79.863,3.305,3.305,0,0,0-.25,1.462v7.156H82.556V38.782h3.021v1.736A5.035,5.035,0,0,1,86.669,39.2a4.317,4.317,0,0,1,4.55-.1,3.5,3.5,0,0,1,1.026,1.429,3.958,3.958,0,0,1,1.516-1.538A4.626,4.626,0,0,1,95.9,38.5a4.174,4.174,0,0,1,1.549.306" transform="translate(14.457 6.742)" fill="#a5a5a5"/>
  </g>
</svg>
